<svg xmlns="http://www.w3.org/2000/svg" data-name="Layer 1" viewBox="0 0 100 100" x="0px" y="0px"><path d="M35.43,63.1v5.53a2,2,0,0,0,2,2H69.14a2,2,0,0,0,2-2V63.1A14.14,14.14,0,0,0,57,49H56.5a10.08,10.08,0,1,0-6.43,0h-.52A14.14,14.14,0,0,0,35.43,63.1ZM47.2,39.44a6.08,6.08,0,1,1,6.08,6.08A6.09,6.09,0,0,1,47.2,39.44ZM67.14,63.1v3.53H39.43V63.1A10.13,10.13,0,0,1,49.55,53H57A10.13,10.13,0,0,1,67.14,63.1Z"/><rect x="18.28" y="41" width="4" height="18"/><path d="M88.28,21a12,12,0,0,0-12-12h-52a6,6,0,0,0-6,6V26h4V15a2,2,0,0,1,2-2h52a8,8,0,0,1,8,8V79a8,8,0,0,1-8,8h-52a2,2,0,0,1-2-2V74h-4V85a6,6,0,0,0,6,6h52a12,12,0,0,0,12-12Z"/><path d="M11.72,66.29a2,2,0,0,0,2,2h13.5a2,2,0,0,0,0-4H13.72A2,2,0,0,0,11.72,66.29Z"/><path d="M11.72,33.71a2,2,0,0,0,2,2h12.5a2,2,0,0,0,0-4H13.72A2,2,0,0,0,11.72,33.71Z"/></svg>
